<?xml version="1.0" encoding="utf-8"?>
<!-- Uploaded to: SVG Repo, www.svgrepo.com, Generator: SVG Repo Mixer Tools -->
<svg fill="#000000" width="800px" height="800px" viewBox="0 0 32 32" version="1.1" xmlns="http://www.w3.org/2000/svg">
<title>circle-of-circles</title>
<path d="M16 1c-2.485 0-4.5 2.015-4.5 4.5s2.015 4.5 4.5 4.5 4.5-2.015 4.5-4.5-2.015-4.5-4.5-4.5zM16 4c0.829 0 1.5 0.672 1.5 1.5s-0.672 1.5-1.5 1.5c-0.829 0-1.5-0.672-1.5-1.5s0.672-1.5 1.5-1.5zM19 16c0 1.657-1.343 3-3 3s-3-1.343-3-3 1.343-3 3-3c1.657 0 3 1.343 3 3zM16 22c-2.485 0-4.5 2.015-4.5 4.5s2.015 4.5 4.5 4.5 4.5-2.015 4.5-4.5c0-2.485-2.015-4.5-4.5-4.5zM16 25c0.829 0 1.5 0.672 1.5 1.5s-0.672 1.5-1.5 1.5c-0.829 0-1.5-0.672-1.5-1.5s0.672-1.5 1.5-1.5zM28.99 8.5c-1.243-2.152-3.995-2.89-6.147-1.647s-2.89 3.995-1.647 6.147 3.995 2.89 6.147 1.647 2.89-3.995 1.647-6.147zM26.392 10c0.414 0.717 0.168 1.635-0.549 2.049s-1.635 0.168-2.049-0.549-0.168-1.635 0.549-2.049 1.634-0.168 2.049 0.549zM10.804 19c-1.243-2.152-3.995-2.89-6.147-1.647s-2.89 3.995-1.647 6.147 3.995 2.89 6.147 1.647 2.89-3.995 1.647-6.147zM8.206 20.5c0.414 0.718 0.168 1.635-0.549 2.049s-1.635 0.168-2.049-0.549-0.168-1.635 0.549-2.049 1.635-0.168 2.049 0.549zM3.009 8.5c-1.243 2.152-0.505 4.904 1.647 6.147s4.904 0.505 6.147-1.647 0.505-4.904-1.647-6.147c-2.152-1.243-4.904-0.505-6.147 1.647zM5.608 10c0.414-0.717 1.331-0.963 2.049-0.549s0.963 1.331 0.549 2.049-1.331 0.963-2.049 0.549c-0.718-0.414-0.963-1.331-0.549-2.049zM21.196 19c-1.243 2.152-0.505 4.904 1.647 6.147s4.904 0.505 6.147-1.647 0.505-4.904-1.647-6.147c-2.152-1.243-4.904-0.505-6.147 1.647v0zM23.794 20.5c0.414-0.718 1.331-0.963 2.049-0.549s0.963 1.331 0.549 2.049-1.331 0.963-2.049 0.549c-0.717-0.414-0.963-1.331-0.549-2.049z"></path>
</svg>